<svg width="29" height="29" viewBox="0 0 29 29" fill="none" xmlns="http://www.w3.org/2000/svg">
<path d="M5 24H1V28H5V24Z" stroke="white" stroke-width="2"/>
<path d="M28 1H24V5H28V1Z" stroke="white" stroke-width="2"/>
<path d="M5 1H1V5H5V1Z" stroke="white" stroke-width="2"/>
<rect x="6" width="1" height="2" fill="white"/>
<rect x="6" y="2" width="1" height="2" fill="white"/>
<rect x="7" width="1" height="2" fill="white"/>
<rect y="6" width="1" height="2" fill="white"/>
<rect y="13" width="1" height="2" fill="white"/>
<rect x="1" y="13" width="1" height="2" fill="white"/>
<rect x="2" y="13" width="1" height="2" fill="white"/>
<rect x="3" y="13" width="1" height="2" fill="white"/>
<rect x="4" y="13" width="1" height="2" fill="white"/>
<rect x="5" y="13" width="1" height="2" fill="white"/>
<rect x="6" y="13" width="1" height="2" fill="white"/>
<rect x="7" y="13" width="1" height="2" fill="white"/>
<rect x="8" y="13" width="1" height="2" fill="white"/>
<rect x="9" y="13" width="1" height="2" fill="white"/>
<rect x="10" y="13" width="1" height="2" fill="white"/>
<rect x="11" y="13" width="1" height="2" fill="white"/>
<rect x="12" y="13" width="1" height="2" fill="white"/>
<rect x="13" y="13" width="1" height="2" fill="white"/>
<rect x="14" y="13" width="1" height="2" fill="white"/>
<rect x="15" y="13" width="1" height="2" fill="white"/>
<rect x="16" y="13" width="1" height="2" fill="white"/>
<rect x="17" y="13" width="1" height="2" fill="white"/>
<rect x="18" y="13" width="1" height="2" fill="white"/>
<rect x="19" y="13" width="1" height="2" fill="white"/>
<rect x="20" y="13" width="1" height="2" fill="white"/>
<rect x="21" y="13" width="1" height="2" fill="white"/>
<rect x="22" y="13" width="1" height="2" fill="white"/>
<rect x="23" y="13" width="1" height="2" fill="white"/>
<rect x="24" y="13" width="1" height="2" fill="white"/>
<rect x="25" y="13" width="1" height="2" fill="white"/>
<rect x="26" y="13" width="1" height="2" fill="white"/>
<rect x="27" y="13" width="1" height="2" fill="white"/>
<rect x="28" y="13" width="1" height="2" fill="white"/>
<rect y="18" width="1" height="2" fill="white"/>
<rect x="1" y="18" width="1" height="2" fill="white"/>
<rect x="2" y="18" width="1" height="2" fill="white"/>
<rect x="3" y="18" width="1" height="2" fill="white"/>
<rect x="4" y="18" width="1" height="2" fill="white"/>
<rect x="5" y="18" width="1" height="2" fill="white"/>
<rect x="6" y="18" width="1" height="2" fill="white"/>
<rect x="7" y="18" width="1" height="2" fill="white"/>
<rect x="8" y="18" width="1" height="2" fill="white"/>
<rect x="9" y="18" width="1" height="2" fill="white"/>
<rect x="10" y="18" width="1" height="2" fill="white"/>
<rect x="11" y="18" width="1" height="2" fill="white"/>
<rect x="12" y="18" width="1" height="2" fill="white"/>
<rect x="13" y="18" width="1" height="2" fill="white"/>
<rect x="14" y="18" width="1" height="2" fill="white"/>
<rect x="15" y="18" width="1" height="2" fill="white"/>
<rect x="16" y="18" width="1" height="2" fill="white"/>
<rect x="17" y="18" width="1" height="2" fill="white"/>
<rect x="18" y="18" width="1" height="2" fill="white"/>
<rect x="19" y="18" width="1" height="2" fill="white"/>
<rect x="20" y="18" width="1" height="2" fill="white"/>
<rect x="21" y="18" width="1" height="2" fill="white"/>
<rect x="22" y="18" width="1" height="2" fill="white"/>
<rect x="23" y="18" width="1" height="2" fill="white"/>
<rect x="24" y="18" width="1" height="2" fill="white"/>
<rect x="25" y="18" width="1" height="2" fill="white"/>
<rect x="26" y="18" width="1" height="2" fill="white"/>
<rect x="27" y="18" width="1" height="2" fill="white"/>
<rect x="28" y="18" width="1" height="2" fill="white"/>
<rect x="6" y="23" width="1" height="2" fill="white"/>
<rect x="7" y="23" width="1" height="2" fill="white"/>
<rect x="8" y="23" width="1" height="2" fill="white"/>
<rect x="9" y="23" width="1" height="2" fill="white"/>
<rect x="10" y="23" width="1" height="2" fill="white"/>
<rect x="11" y="23" width="1" height="2" fill="white"/>
<rect x="12" y="23" width="1" height="2" fill="white"/>
<rect x="13" y="23" width="1" height="2" fill="white"/>
<rect x="14" y="23" width="1" height="2" fill="white"/>
<rect x="15" y="23" width="1" height="2" fill="white"/>
<rect x="16" y="23" width="1" height="2" fill="white"/>
<rect x="17" y="23" width="1" height="2" fill="white"/>
<rect x="18" y="23" width="1" height="2" fill="white"/>
<rect x="19" y="23" width="1" height="2" fill="white"/>
<rect x="20" y="23" width="1" height="2" fill="white"/>
<rect x="21" y="23" width="1" height="2" fill="white"/>
<rect x="22" y="23" width="1" height="2" fill="white"/>
<rect x="23" y="23" width="1" height="2" fill="white"/>
<rect x="24" y="23" width="1" height="2" fill="white"/>
<rect x="25" y="23" width="1" height="2" fill="white"/>
<rect x="26" y="23" width="1" height="2" fill="white"/>
<rect x="27" y="23" width="1" height="2" fill="white"/>
<rect x="28" y="23" width="1" height="2" fill="white"/>
<rect y="9" width="1" height="2" fill="white"/>
<rect y="16" width="1" height="2" fill="white"/>
<rect x="1" y="16" width="1" height="2" fill="white"/>
<rect x="2" y="16" width="1" height="2" fill="white"/>
<rect x="3" y="16" width="1" height="2" fill="white"/>
<rect x="4" y="16" width="1" height="2" fill="white"/>
<rect x="5" y="16" width="1" height="2" fill="white"/>
<rect x="6" y="16" width="1" height="2" fill="white"/>
<rect x="7" y="16" width="1" height="2" fill="white"/>
<rect x="8" y="16" width="1" height="2" fill="white"/>
<rect x="9" y="16" width="1" height="2" fill="white"/>
<rect x="10" y="16" width="1" height="2" fill="white"/>
<rect x="11" y="16" width="1" height="2" fill="white"/>
<rect x="12" y="16" width="1" height="2" fill="white"/>
<rect x="13" y="16" width="1" height="2" fill="white"/>
<rect x="14" y="16" width="1" height="2" fill="white"/>
<rect x="15" y="16" width="1" height="2" fill="white"/>
<rect x="16" y="16" width="1" height="2" fill="white"/>
<rect x="17" y="16" width="1" height="2" fill="white"/>
<rect x="18" y="16" width="1" height="2" fill="white"/>
<rect x="19" y="16" width="1" height="2" fill="white"/>
<rect x="20" y="16" width="1" height="2" fill="white"/>
<rect x="21" y="16" width="1" height="2" fill="white"/>
<rect x="22" y="16" width="1" height="2" fill="white"/>
<rect x="23" y="16" width="1" height="2" fill="white"/>
<rect x="24" y="16" width="1" height="2" fill="white"/>
<rect x="25" y="16" width="1" height="2" fill="white"/>
<rect x="26" y="16" width="1" height="2" fill="white"/>
<rect x="27" y="16" width="1" height="2" fill="white"/>
<rect x="28" y="16" width="1" height="2" fill="white"/>
<rect y="21" width="1" height="2" fill="white"/>
<rect x="1" y="21" width="1" height="2" fill="white"/>
<rect x="2" y="21" width="1" height="2" fill="white"/>
<rect x="3" y="21" width="1" height="2" fill="white"/>
<rect x="4" y="21" width="1" height="2" fill="white"/>
<rect x="5" y="21" width="1" height="2" fill="white"/>
<rect x="6" y="21" width="1" height="2" fill="white"/>
<rect x="7" y="21" width="1" height="2" fill="white"/>
<rect x="8" y="21" width="1" height="2" fill="white"/>
<rect x="9" y="21" width="1" height="2" fill="white"/>
<rect x="10" y="21" width="1" height="2" fill="white"/>
<rect x="11" y="21" width="1" height="2" fill="white"/>
<rect x="12" y="21" width="1" height="2" fill="white"/>
<rect x="13" y="21" width="1" height="2" fill="white"/>
<rect x="14" y="21" width="1" height="2" fill="white"/>
<rect x="15" y="21" width="1" height="2" fill="white"/>
<rect x="16" y="21" width="1" height="2" fill="white"/>
<rect x="17" y="21" width="1" height="2" fill="white"/>
<rect x="18" y="21" width="1" height="2" fill="white"/>
<rect x="19" y="21" width="1" height="2" fill="white"/>
<rect x="20" y="21" width="1" height="2" fill="white"/>
<rect x="21" y="21" width="1" height="2" fill="white"/>
<rect x="22" y="21" width="1" height="2" fill="white"/>
<rect x="23" y="21" width="1" height="2" fill="white"/>
<rect x="24" y="21" width="1" height="2" fill="white"/>
<rect x="25" y="21" width="1" height="2" fill="white"/>
<rect x="26" y="21" width="1" height="2" fill="white"/>
<rect x="27" y="21" width="1" height="2" fill="white"/>
<rect x="28" y="21" width="1" height="2" fill="white"/>
<rect x="6" y="26" width="1" height="2" fill="white"/>
<rect x="7" y="26" width="1" height="2" fill="white"/>
<rect x="8" y="26" width="1" height="2" fill="white"/>
<rect x="9" y="26" width="1" height="2" fill="white"/>
<rect x="10" y="26" width="1" height="2" fill="white"/>
<rect x="11" y="26" width="1" height="2" fill="white"/>
<rect x="12" y="26" width="1" height="2" fill="white"/>
<rect x="13" y="26" width="1" height="2" fill="white"/>
<rect x="14" y="26" width="1" height="2" fill="white"/>
<rect x="15" y="26" width="1" height="2" fill="white"/>
<rect x="16" y="26" width="1" height="2" fill="white"/>
<rect x="17" y="26" width="1" height="2" fill="white"/>
<rect x="18" y="26" width="1" height="2" fill="white"/>
<rect x="19" y="26" width="1" height="2" fill="white"/>
<rect x="6" y="28" width="1" height="1" fill="white"/>
<rect x="7" y="28" width="1" height="1" fill="white"/>
<rect x="8" y="28" width="1" height="1" fill="white"/>
<rect x="9" y="28" width="1" height="1" fill="white"/>
<rect x="10" y="28" width="1" height="1" fill="white"/>
<rect x="11" y="28" width="1" height="1" fill="white"/>
<rect x="12" y="28" width="1" height="1" fill="white"/>
<rect x="13" y="28" width="1" height="1" fill="white"/>
<rect x="14" y="28" width="1" height="1" fill="white"/>
<rect x="15" y="28" width="1" height="1" fill="white"/>
<rect x="16" y="28" width="1" height="1" fill="white"/>
<rect x="17" y="28" width="1" height="1" fill="white"/>
<rect x="18" y="28" width="1" height="1" fill="white"/>
<rect x="19" y="28" width="1" height="1" fill="white"/>
<rect x="20" y="28" width="1" height="1" fill="white"/>
<rect x="21" y="28" width="1" height="1" fill="white"/>
<rect x="22" y="28" width="1" height="1" fill="white"/>
<rect x="23" y="28" width="1" height="1" fill="white"/>
<rect x="24" y="28" width="1" height="1" fill="white"/>
<rect x="25" y="28" width="1" height="1" fill="white"/>
<rect x="26" y="28" width="1" height="1" fill="white"/>
<rect x="27" y="28" width="1" height="1" fill="white"/>
<rect x="28" y="28" width="1" height="1" fill="white"/>
<rect x="20" y="26" width="1" height="2" fill="white"/>
<rect x="21" y="26" width="1" height="2" fill="white"/>
<rect x="22" y="26" width="1" height="2" fill="white"/>
<rect x="23" y="26" width="1" height="2" fill="white"/>
<rect x="24" y="26" width="1" height="2" fill="white"/>
<rect x="25" y="26" width="1" height="2" fill="white"/>
<rect x="26" y="26" width="1" height="2" fill="white"/>
<rect x="27" y="26" width="1" height="2" fill="white"/>
<rect x="28" y="26" width="1" height="2" fill="white"/>
<rect x="1" y="9" width="1" height="2" fill="white"/>
<rect x="2" y="9" width="1" height="2" fill="white"/>
<rect x="3" y="9" width="1" height="2" fill="white"/>
<rect x="4" y="9" width="1" height="2" fill="white"/>
<rect x="5" y="9" width="1" height="2" fill="white"/>
<rect x="6" y="9" width="1" height="2" fill="white"/>
<rect x="7" y="9" width="1" height="2" fill="white"/>
<rect x="8" y="9" width="1" height="2" fill="white"/>
<rect x="9" y="9" width="1" height="2" fill="white"/>
<rect x="10" y="9" width="1" height="2" fill="white"/>
<rect x="11" y="9" width="1" height="2" fill="white"/>
<rect x="12" y="9" width="1" height="2" fill="white"/>
<rect x="13" y="9" width="1" height="2" fill="white"/>
<rect x="14" y="9" width="1" height="2" fill="white"/>
<rect x="15" y="9" width="1" height="2" fill="white"/>
<rect x="16" y="9" width="1" height="2" fill="white"/>
<rect x="17" y="9" width="1" height="2" fill="white"/>
<rect x="18" y="9" width="1" height="2" fill="white"/>
<rect x="19" y="9" width="1" height="2" fill="white"/>
<rect x="20" y="9" width="1" height="2" fill="white"/>
<rect x="21" y="9" width="1" height="2" fill="white"/>
<rect x="22" y="9" width="1" height="2" fill="white"/>
<rect x="23" y="9" width="1" height="2" fill="white"/>
<rect x="24" y="9" width="1" height="2" fill="white"/>
<rect x="25" y="9" width="1" height="2" fill="white"/>
<rect x="26" y="9" width="1" height="2" fill="white"/>
<rect x="27" y="9" width="1" height="2" fill="white"/>
<rect x="1" y="6" width="1" height="2" fill="white"/>
<rect x="2" y="6" width="1" height="2" fill="white"/>
<rect x="3" y="6" width="1" height="2" fill="white"/>
<rect x="4" y="6" width="1" height="2" fill="white"/>
<rect x="5" y="6" width="1" height="2" fill="white"/>
<rect x="6" y="6" width="1" height="2" fill="white"/>
<rect x="7" y="6" width="1" height="2" fill="white"/>
<rect x="6" y="4" width="1" height="2" fill="white"/>
<rect x="7" y="4" width="1" height="2" fill="white"/>
<rect x="8" y="4" width="1" height="2" fill="white"/>
<rect x="9" y="4" width="1" height="2" fill="white"/>
<rect x="10" y="4" width="1" height="2" fill="white"/>
<rect x="11" y="4" width="1" height="2" fill="white"/>
<rect x="12" y="4" width="1" height="2" fill="white"/>
<rect x="13" y="4" width="1" height="2" fill="white"/>
<rect x="14" y="4" width="1" height="2" fill="white"/>
<rect x="15" y="4" width="1" height="2" fill="white"/>
<rect x="16" y="4" width="1" height="2" fill="white"/>
<rect x="17" y="4" width="1" height="2" fill="white"/>
<rect x="18" y="4" width="1" height="2" fill="white"/>
<rect x="19" y="4" width="1" height="2" fill="white"/>
<rect x="20" y="4" width="1" height="2" fill="white"/>
<rect x="21" y="4" width="1" height="2" fill="white"/>
<rect x="22" y="4" width="1" height="2" fill="white"/>
<rect x="8" y="6" width="1" height="2" fill="white"/>
<rect x="9" y="6" width="1" height="2" fill="white"/>
<rect x="10" y="6" width="1" height="2" fill="white"/>
<rect x="11" y="6" width="1" height="2" fill="white"/>
<rect x="12" y="6" width="1" height="2" fill="white"/>
<rect x="13" y="6" width="1" height="2" fill="white"/>
<rect x="14" y="6" width="1" height="2" fill="white"/>
<rect x="15" y="6" width="1" height="2" fill="white"/>
<rect x="16" y="6" width="1" height="2" fill="white"/>
<rect x="17" y="6" width="1" height="2" fill="white"/>
<rect x="18" y="6" width="1" height="2" fill="white"/>
<rect x="19" y="6" width="1" height="2" fill="white"/>
<rect x="20" y="6" width="1" height="2" fill="white"/>
<rect x="21" y="6" width="1" height="2" fill="white"/>
<rect x="22" y="6" width="1" height="2" fill="white"/>
<rect x="23" y="6" width="1" height="2" fill="white"/>
<rect x="24" y="6" width="1" height="2" fill="white"/>
<rect x="25" y="6" width="1" height="2" fill="white"/>
<rect x="26" y="6" width="1" height="2" fill="white"/>
<rect x="27" y="6" width="1" height="2" fill="white"/>
<rect x="28" y="6" width="1" height="2" fill="white"/>
<rect x="7" y="2" width="1" height="2" fill="white"/>
<rect y="8" width="1" height="2" fill="white"/>
<rect y="15" width="1" height="2" fill="white"/>
<rect x="1" y="15" width="1" height="2" fill="white"/>
<rect x="2" y="15" width="1" height="2" fill="white"/>
<rect x="3" y="15" width="1" height="2" fill="white"/>
<rect x="4" y="15" width="1" height="2" fill="white"/>
<rect x="5" y="15" width="1" height="2" fill="white"/>
<rect x="6" y="15" width="1" height="2" fill="white"/>
<rect x="7" y="15" width="1" height="2" fill="white"/>
<rect x="8" y="15" width="1" height="2" fill="white"/>
<rect x="9" y="15" width="1" height="2" fill="white"/>
<rect x="10" y="15" width="1" height="2" fill="white"/>
<rect x="11" y="15" width="1" height="2" fill="white"/>
<rect x="12" y="15" width="1" height="2" fill="white"/>
<rect x="13" y="15" width="1" height="2" fill="white"/>
<rect x="14" y="15" width="1" height="2" fill="white"/>
<rect x="15" y="15" width="1" height="2" fill="white"/>
<rect x="16" y="15" width="1" height="2" fill="white"/>
<rect x="17" y="15" width="1" height="2" fill="white"/>
<rect x="18" y="15" width="1" height="2" fill="white"/>
<rect x="19" y="15" width="1" height="2" fill="white"/>
<rect x="20" y="15" width="1" height="2" fill="white"/>
<rect x="21" y="15" width="1" height="2" fill="white"/>
<rect x="22" y="15" width="1" height="2" fill="white"/>
<rect x="23" y="15" width="1" height="2" fill="white"/>
<rect x="24" y="15" width="1" height="2" fill="white"/>
<rect x="25" y="15" width="1" height="2" fill="white"/>
<rect x="26" y="15" width="1" height="2" fill="white"/>
<rect x="27" y="15" width="1" height="2" fill="white"/>
<rect x="28" y="15" width="1" height="2" fill="white"/>
<rect y="20" width="1" height="2" fill="white"/>
<rect x="1" y="20" width="1" height="2" fill="white"/>
<rect x="2" y="20" width="1" height="2" fill="white"/>
<rect x="3" y="20" width="1" height="2" fill="white"/>
<rect x="4" y="20" width="1" height="2" fill="white"/>
<rect x="5" y="20" width="1" height="2" fill="white"/>
<rect x="6" y="20" width="1" height="2" fill="white"/>
<rect x="7" y="20" width="1" height="2" fill="white"/>
<rect x="8" y="20" width="1" height="2" fill="white"/>
<rect x="9" y="20" width="1" height="2" fill="white"/>
<rect x="10" y="20" width="1" height="2" fill="white"/>
<rect x="11" y="20" width="1" height="2" fill="white"/>
<rect x="12" y="20" width="1" height="2" fill="white"/>
<rect x="13" y="20" width="1" height="2" fill="white"/>
<rect x="14" y="20" width="1" height="2" fill="white"/>
<rect x="15" y="20" width="1" height="2" fill="white"/>
<rect x="16" y="20" width="1" height="2" fill="white"/>
<rect x="17" y="20" width="1" height="2" fill="white"/>
<rect x="18" y="20" width="1" height="2" fill="white"/>
<rect x="19" y="20" width="1" height="2" fill="white"/>
<rect x="20" y="20" width="1" height="2" fill="white"/>
<rect x="21" y="20" width="1" height="2" fill="white"/>
<rect x="22" y="20" width="1" height="2" fill="white"/>
<rect x="23" y="20" width="1" height="2" fill="white"/>
<rect x="24" y="20" width="1" height="2" fill="white"/>
<rect x="25" y="20" width="1" height="2" fill="white"/>
<rect x="26" y="20" width="1" height="2" fill="white"/>
<rect x="27" y="20" width="1" height="2" fill="white"/>
<rect x="28" y="20" width="1" height="2" fill="white"/>
<rect x="6" y="25" width="1" height="2" fill="white"/>
<rect x="7" y="25" width="1" height="2" fill="white"/>
<rect x="8" y="25" width="1" height="2" fill="white"/>
<rect x="9" y="25" width="1" height="2" fill="white"/>
<rect x="10" y="25" width="1" height="2" fill="white"/>
<rect x="11" y="25" width="1" height="2" fill="white"/>
<rect x="12" y="25" width="1" height="2" fill="white"/>
<rect x="13" y="25" width="1" height="2" fill="white"/>
<rect x="14" y="25" width="1" height="2" fill="white"/>
<rect x="15" y="25" width="1" height="2" fill="white"/>
<rect x="16" y="25" width="1" height="2" fill="white"/>
<rect x="17" y="25" width="1" height="2" fill="white"/>
<rect x="18" y="25" width="1" height="2" fill="white"/>
<rect x="19" y="25" width="1" height="2" fill="white"/>
<rect x="20" y="25" width="1" height="2" fill="white"/>
<rect x="21" y="25" width="1" height="2" fill="white"/>
<rect x="22" y="25" width="1" height="2" fill="white"/>
<rect x="23" y="25" width="1" height="2" fill="white"/>
<rect x="24" y="25" width="1" height="2" fill="white"/>
<rect x="25" y="25" width="1" height="2" fill="white"/>
<rect x="26" y="25" width="1" height="2" fill="white"/>
<rect x="27" y="25" width="1" height="2" fill="white"/>
<rect x="28" y="25" width="1" height="2" fill="white"/>
<rect y="11" width="1" height="2" fill="white"/>
<rect x="1" y="11" width="1" height="2" fill="white"/>
<rect x="2" y="11" width="1" height="2" fill="white"/>
<rect x="3" y="11" width="1" height="2" fill="white"/>
<rect x="4" y="11" width="1" height="2" fill="white"/>
<rect x="5" y="11" width="1" height="2" fill="white"/>
<rect x="6" y="11" width="1" height="2" fill="white"/>
<rect x="7" y="11" width="1" height="2" fill="white"/>
<rect x="8" y="11" width="1" height="2" fill="white"/>
<rect x="9" y="11" width="1" height="2" fill="white"/>
<rect x="10" y="11" width="1" height="2" fill="white"/>
<rect x="11" y="11" width="1" height="2" fill="white"/>
<rect x="12" y="11" width="1" height="2" fill="white"/>
<rect x="13" y="11" width="1" height="2" fill="white"/>
<rect x="14" y="11" width="1" height="2" fill="white"/>
<rect x="15" y="11" width="1" height="2" fill="white"/>
<rect x="16" y="11" width="1" height="2" fill="white"/>
<rect x="17" y="11" width="1" height="2" fill="white"/>
<rect x="18" y="11" width="1" height="2" fill="white"/>
<rect x="19" y="11" width="1" height="2" fill="white"/>
<rect x="20" y="11" width="1" height="2" fill="white"/>
<rect x="21" y="11" width="1" height="2" fill="white"/>
<rect x="22" y="11" width="1" height="2" fill="white"/>
<rect x="23" y="11" width="1" height="2" fill="white"/>
<rect x="24" y="11" width="1" height="2" fill="white"/>
<rect x="25" y="11" width="1" height="2" fill="white"/>
<rect x="26" y="11" width="1" height="2" fill="white"/>
<rect x="27" y="11" width="1" height="2" fill="white"/>
<rect x="1" y="8" width="1" height="2" fill="white"/>
<rect x="2" y="8" width="1" height="2" fill="white"/>
<rect x="3" y="8" width="1" height="2" fill="white"/>
<rect x="4" y="8" width="1" height="2" fill="white"/>
<rect x="5" y="8" width="1" height="2" fill="white"/>
<rect x="6" y="8" width="1" height="2" fill="white"/>
<rect x="7" y="8" width="1" height="2" fill="white"/>
<rect x="8" y="8" width="1" height="2" fill="white"/>
<rect x="9" y="8" width="1" height="2" fill="white"/>
<rect x="10" y="8" width="1" height="2" fill="white"/>
<rect x="11" y="8" width="1" height="2" fill="white"/>
<rect x="12" y="8" width="1" height="2" fill="white"/>
<rect x="13" y="8" width="1" height="2" fill="white"/>
<rect x="14" y="8" width="1" height="2" fill="white"/>
<rect x="15" y="8" width="1" height="2" fill="white"/>
<rect x="16" y="8" width="1" height="2" fill="white"/>
<rect x="17" y="8" width="1" height="2" fill="white"/>
<rect x="18" y="8" width="1" height="2" fill="white"/>
<rect x="19" y="8" width="1" height="2" fill="white"/>
<rect x="20" y="8" width="1" height="2" fill="white"/>
<rect x="21" y="8" width="1" height="2" fill="white"/>
<rect x="22" y="8" width="1" height="2" fill="white"/>
<rect x="23" y="8" width="1" height="2" fill="white"/>
<rect x="24" y="8" width="1" height="2" fill="white"/>
<rect x="25" y="8" width="1" height="2" fill="white"/>
<rect x="26" y="8" width="1" height="2" fill="white"/>
<rect x="27" y="8" width="1" height="2" fill="white"/>
<rect x="28" y="8" width="1" height="2" fill="white"/>
<rect x="8" width="1" height="2" fill="white"/>
<rect x="8" y="2" width="1" height="2" fill="white"/>
<rect x="9" width="1" height="2" fill="white"/>
<rect x="9" y="2" width="1" height="2" fill="white"/>
<rect x="11" width="1" height="2" fill="white"/>
<rect x="11" y="2" width="1" height="2" fill="white"/>
<rect x="12" width="1" height="2" fill="white"/>
<rect x="12" y="2" width="1" height="2" fill="white"/>
<rect x="14" width="1" height="2" fill="white"/>
<rect x="14" y="2" width="1" height="2" fill="white"/>
<rect x="15" width="1" height="2" fill="white"/>
<rect x="15" y="2" width="1" height="2" fill="white"/>
<rect x="16" width="1" height="2" fill="white"/>
<rect x="16" y="2" width="1" height="2" fill="white"/>
<rect x="17" width="1" height="2" fill="white"/>
<rect x="18" width="1" height="2" fill="white"/>
<rect x="18" y="2" width="1" height="2" fill="white"/>
<rect x="19" width="1" height="2" fill="white"/>
<rect x="20" width="1" height="2" fill="white"/>
<rect x="20" y="2" width="1" height="2" fill="white"/>
<rect x="19" y="2" width="1" height="2" fill="white"/>
<rect x="17" y="2" width="1" height="2" fill="white"/>
<rect x="13" y="2" width="1" height="2" fill="white"/>
<rect x="10" y="2" width="1" height="2" fill="white"/>
<rect x="21" width="1" height="2" fill="white"/>
<rect x="21" y="2" width="1" height="2" fill="white"/>
<rect x="22" width="1" height="2" fill="white"/>
<rect x="22" y="2" width="1" height="2" fill="white"/>
<rect x="2" y="2" width="2" height="2" fill="black"/>
<rect x="2" y="25" width="2" height="2" fill="black"/>
<rect x="25" y="2" width="2" height="2" fill="black"/>
<path d="M5.5 0.5V5.5H0.5V0.5H5.5Z" stroke="black"/>
<path d="M5.5 23.5V28.5H0.5V23.5H5.5Z" stroke="black"/>
<path d="M28.5 0.5V5.5H23.5V0.5H28.5Z" stroke="black"/>
<rect x="10" width="1" height="2" fill="black"/>
<rect x="11" y="2" width="1" height="2" fill="black"/>
<rect x="13" y="3" width="1" height="2" transform="rotate(90 13 3)" fill="black"/>
<rect x="14" y="8" width="1" height="2" transform="rotate(90 14 8)" fill="black"/>
<rect x="13" y="9" width="1" height="2" transform="rotate(90 13 9)" fill="black"/>
<rect x="15" y="2" width="1" height="2" transform="rotate(90 15 2)" fill="black"/>
<rect x="17" y="3" width="1" height="2" transform="rotate(90 17 3)" fill="black"/>
<rect x="14" y="1" width="1" height="2" transform="rotate(90 14 1)" fill="black"/>
<rect x="14" y="2" width="1" height="2" transform="rotate(-180 14 2)" fill="black"/>
<rect x="14" y="6" width="1" height="2" transform="rotate(-180 14 6)" fill="black"/>
<rect x="13" y="7" width="1" height="2" transform="rotate(-180 13 7)" fill="black"/>
<rect x="10" y="10" width="1" height="3" transform="rotate(-180 10 10)" fill="black"/>
<rect x="20" y="2" width="1" height="2" transform="rotate(-180 20 2)" fill="black"/>
<rect x="18" y="6" width="1" height="2" transform="rotate(-180 18 6)" fill="black"/>
<rect x="19" y="5" width="1" height="2" transform="rotate(-180 19 5)" fill="black"/>
<rect x="17" y="5" width="1" height="3" transform="rotate(-180 17 5)" fill="black"/>
<rect x="18" y="3" width="1" height="3" transform="rotate(-180 18 3)" fill="black"/>
<rect x="11" y="4" width="1" height="3" transform="rotate(90 11 4)" fill="black"/>
<rect x="6" y="10" width="1" height="3" transform="rotate(90 6 10)" fill="black"/>
<rect x="11" y="5" width="1" height="3" transform="rotate(90 11 5)" fill="black"/>
<rect x="14" y="2" width="1" height="2" transform="rotate(-90 14 2)" fill="black"/>
<rect x="19" y="1" width="1" height="2" transform="rotate(-90 19 1)" fill="black"/>
<rect x="16" y="3" width="1" height="2" transform="rotate(-90 16 3)" fill="black"/>
<rect x="10" y="2" width="1" height="2" transform="rotate(90 10 2)" fill="black"/>
<rect x="4" y="9" width="1" height="2" transform="rotate(90 4 9)" fill="black"/>
<rect x="8" y="6" width="1" height="1" fill="black"/>
<rect x="1" y="8" width="1" height="1" fill="black"/>
<rect x="4" y="8" width="1" height="1" fill="black"/>
<rect x="7" y="9" width="1" height="1" fill="black"/>
<rect x="6" y="10" width="1" height="1" fill="black"/>
<rect x="6" y="8" width="1" height="1" fill="black"/>
<rect x="8" y="8" width="1" height="1" fill="black"/>
<rect x="10" y="6" width="1" height="1" fill="black"/>
<rect x="14" y="6" width="1" height="1" fill="black"/>
<rect x="11" y="7" width="1" height="1" fill="black"/>
<rect x="16" y="6" width="1" height="1" fill="black"/>
<rect x="15" y="7" width="1" height="1" fill="black"/>
<rect x="17" y="8" width="1" height="1" fill="black"/>
<rect x="17" y="9" width="1" height="1" fill="black"/>
<rect x="18" y="9" width="1" height="1" fill="black"/>
<rect x="19" y="9" width="1" height="1" fill="black"/>
<rect x="20" y="8" width="1" height="1" fill="black"/>
<rect x="21" y="8" width="1" height="1" fill="black"/>
<rect x="21" y="10" width="1" height="1" fill="black"/>
<rect x="21" y="11" width="1" height="1" fill="black"/>
<rect x="20" y="11" width="1" height="1" fill="black"/>
<rect x="19" y="11" width="1" height="1" fill="black"/>
<rect x="18" y="11" width="1" height="1" fill="black"/>
<rect x="17" y="11" width="1" height="1" fill="black"/>
<rect x="17" y="12" width="1" height="1" fill="black"/>
<rect x="17" y="10" width="1" height="1" fill="black"/>
<rect x="19" y="10" width="1" height="1" fill="black"/>
<rect x="20" y="12" width="1" height="1" fill="black"/>
<rect x="22" y="9" width="1" height="1" fill="black"/>
<rect x="23" y="8" width="1" height="1" fill="black"/>
<rect x="24" y="8" width="1" height="1" fill="black"/>
<rect x="23" y="9" width="1" height="1" fill="black"/>
<rect x="24" y="9" width="1" height="1" fill="black"/>
<rect x="24" y="10" width="1" height="1" fill="black"/>
<rect x="24" y="11" width="1" height="1" fill="black"/>
<rect x="25" y="9" width="1" height="1" fill="black"/>
<rect x="25" y="10" width="1" height="1" fill="black"/>
<rect x="27" y="11" width="1" height="1" fill="black"/>
<rect x="27" y="9" width="1" height="1" fill="black"/>
<rect x="28" y="9" width="1" height="1" fill="black"/>
<rect x="28" y="10" width="1" height="1" fill="black"/>
<rect x="28" y="11" width="1" height="1" fill="black"/>
<rect x="26" y="10" width="1" height="1" fill="black"/>
<rect x="26" y="8" width="1" height="1" fill="black"/>
<rect x="25" y="11" width="1" height="1" fill="black"/>
<rect x="16" y="9" width="1" height="1" fill="black"/>
<rect x="12" y="10" width="1" height="1" fill="black"/>
<rect x="12" y="11" width="1" height="1" fill="black"/>
<rect x="11" y="11" width="1" height="1" fill="black"/>
<rect x="10" y="11" width="1" height="1" fill="black"/>
<rect x="10" y="10" width="1" height="1" fill="black"/>
<rect x="8" y="11" width="1" height="1" fill="black"/>
<rect x="1" y="10" width="1" height="1" fill="black"/>
<rect y="10" width="1" height="1" fill="black"/>
<rect y="11" width="1" height="1" fill="black"/>
<rect x="2" y="11" width="1" height="1" fill="black"/>
<rect x="3" y="12" width="1" height="1" fill="black"/>
<rect x="4" y="13" width="1" height="1" fill="black"/>
<rect x="1" y="13" width="1" height="1" fill="black"/>
<rect x="4" y="14" width="1" height="1" fill="black"/>
<rect y="15" width="1" height="1" fill="black"/>
<rect y="17" width="1" height="1" fill="black"/>
<rect x="1" y="17" width="1" height="1" fill="black"/>
<rect x="2" y="17" width="1" height="1" fill="black"/>
<rect x="2" y="18" width="1" height="1" fill="black"/>
<rect x="3" y="17" width="1" height="1" fill="black"/>
<rect x="3" y="18" width="1" height="1" fill="black"/>
<rect x="4" y="17" width="1" height="1" fill="black"/>
<rect x="4" y="18" width="1" height="1" fill="black"/>
<rect x="5" y="17" width="1" height="1" fill="black"/>
<rect x="5" y="16" width="1" height="1" fill="black"/>
<rect x="6" y="16" width="1" height="1" fill="black"/>
<rect x="7" y="16" width="1" height="1" fill="black"/>
<rect x="6" y="18" width="1" height="1" fill="black"/>
<rect x="6" y="20" width="1" height="1" fill="black"/>
<rect x="8" y="21" width="1" height="1" fill="black"/>
<rect x="9" y="20" width="1" height="1" fill="black"/>
<rect x="10" y="20" width="1" height="1" fill="black"/>
<rect x="11" y="21" width="1" height="1" fill="black"/>
<rect x="12" y="22" width="1" height="1" fill="black"/>
<rect x="12" y="23" width="1" height="1" fill="black"/>
<rect x="13" y="22" width="1" height="1" fill="black"/>
<rect x="13" y="23" width="1" height="1" fill="black"/>
<rect x="14" y="24" width="1" height="1" fill="black"/>
<rect x="15" y="24" width="1" height="1" fill="black"/>
<rect x="17" y="25" width="1" height="1" fill="black"/>
<rect x="15" y="23" width="1" height="1" fill="black"/>
<rect x="17" y="28" width="1" height="1" fill="black"/>
<rect x="15" y="26" width="1" height="1" fill="black"/>
<rect x="13" y="27" width="1" height="1" fill="black"/>
<rect x="12" y="26" width="1" height="1" fill="black"/>
<rect x="10" y="23" width="1" height="1" fill="black"/>
<rect x="11" y="24" width="1" height="1" fill="black"/>
<rect x="11" y="25" width="1" height="1" fill="black"/>
<rect x="10" y="24" width="1" height="1" fill="black"/>
<rect x="9" y="24" width="1" height="1" fill="black"/>
<rect x="8" y="24" width="1" height="1" fill="black"/>
<rect x="10" y="25" width="1" height="1" fill="black"/>
<rect x="9" y="25" width="1" height="1" fill="black"/>
<rect x="9" y="26" width="1" height="1" fill="black"/>
<rect x="9" y="27" width="1" height="1" fill="black"/>
<rect x="8" y="27" width="1" height="1" fill="black"/>
<rect x="18" y="27" width="1" height="1" fill="black"/>
<rect x="16" y="27" width="1" height="1" fill="black"/>
<rect x="14" y="28" width="1" height="1" fill="black"/>
<rect x="15" y="22" width="1" height="1" fill="black"/>
<rect x="17" y="27" width="1" height="1" fill="black"/>
<rect x="15" y="27" width="1" height="1" fill="black"/>
<rect x="13" y="28" width="1" height="1" fill="black"/>
<rect x="16" y="22" width="1" height="1" fill="black"/>
<rect x="16" y="24" width="1" height="1" fill="black"/>
<rect x="18" y="25" width="1" height="1" fill="black"/>
<rect x="9" y="21" width="1" height="1" fill="black"/>
<rect x="9" y="22" width="1" height="1" fill="black"/>
<rect x="10" y="19" width="1" height="1" fill="black"/>
<rect x="5" y="20" width="1" height="1" fill="black"/>
<rect x="3" y="20" width="1" height="1" fill="black"/>
<rect x="1" y="20" width="1" height="1" fill="black"/>
<rect y="20" width="1" height="1" fill="black"/>
<rect x="8" y="18" width="1" height="1" fill="black"/>
<rect x="5" y="19" width="1" height="1" fill="black"/>
<rect x="2" y="15" width="1" height="1" fill="black"/>
<rect x="6" y="14" width="1" height="1" fill="black"/>
<rect x="7" y="13" width="1" height="1" fill="black"/>
<rect x="7" y="14" width="1" height="1" fill="black"/>
<rect x="8" y="14" width="1" height="1" fill="black"/>
<rect x="9" y="14" width="1" height="1" fill="black"/>
<rect x="10" y="14" width="1" height="1" fill="black"/>
<rect x="10" y="13" width="1" height="1" fill="black"/>
<rect x="11" y="12" width="1" height="1" fill="black"/>
<rect x="11" y="13" width="1" height="1" fill="black"/>
<rect x="11" y="14" width="1" height="1" fill="black"/>
<rect x="12" y="13" width="1" height="1" fill="black"/>
<rect x="13" y="13" width="1" height="1" fill="black"/>
<rect x="13" y="12" width="1" height="1" fill="black"/>
<rect x="14" y="12" width="1" height="1" fill="black"/>
<rect x="14" y="11" width="1" height="1" fill="black"/>
<rect x="15" y="9" width="1" height="1" fill="black"/>
<rect x="15" y="10" width="1" height="1" fill="black"/>
<rect x="15" y="11" width="1" height="1" fill="black"/>
<rect x="15" y="12" width="1" height="1" fill="black"/>
<rect x="15" y="13" width="1" height="1" fill="black"/>
<rect x="16" y="13" width="1" height="1" fill="black"/>
<rect x="18" y="13" width="1" height="1" fill="black"/>
<rect x="23" y="12" width="1" height="1" fill="black"/>
<rect x="22" y="13" width="1" height="1" fill="black"/>
<rect x="20" y="14" width="1" height="1" fill="black"/>
<rect x="17" y="14" width="1" height="1" fill="black"/>
<rect x="14" y="14" width="1" height="1" fill="black"/>
<rect x="13" y="15" width="1" height="1" fill="black"/>
<rect x="15" y="15" width="1" height="1" fill="black"/>
<rect x="15" y="14" width="1" height="1" fill="black"/>
<rect x="17" y="15" width="1" height="1" fill="black"/>
<rect x="18" y="15" width="1" height="1" fill="black"/>
<rect x="18" y="16" width="1" height="1" fill="black"/>
<rect x="20" y="15" width="1" height="1" fill="black"/>
<rect x="24" y="13" width="1" height="1" fill="black"/>
<rect x="24" y="14" width="1" height="1" fill="black"/>
<rect x="22" y="15" width="1" height="1" fill="black"/>
<rect x="23" y="15" width="1" height="1" fill="black"/>
<rect x="25" y="15" width="1" height="1" fill="black"/>
<rect x="27" y="15" width="1" height="1" fill="black"/>
<rect x="27" y="16" width="1" height="1" fill="black"/>
<rect x="26" y="17" width="1" height="1" fill="black"/>
<rect x="26" y="18" width="1" height="1" fill="black"/>
<rect x="25" y="17" width="1" height="1" fill="black"/>
<rect x="25" y="18" width="1" height="1" fill="black"/>
<rect x="24" y="17" width="1" height="1" fill="black"/>
<rect x="24" y="18" width="1" height="1" fill="black"/>
<rect x="23" y="17" width="1" height="1" fill="black"/>
<rect x="20" y="17" width="1" height="1" fill="black"/>
<rect x="20" y="18" width="1" height="1" fill="black"/>
<rect x="19" y="17" width="1" height="1" fill="black"/>
<rect x="18" y="18" width="1" height="1" fill="black"/>
<rect x="16" y="18" width="1" height="1" fill="black"/>
<rect x="16" y="17" width="1" height="1" fill="black"/>
<rect x="14" y="16" width="1" height="1" fill="black"/>
<rect x="14" y="17" width="1" height="1" fill="black"/>
<rect x="14" y="18" width="1" height="1" fill="black"/>
<rect x="14" y="19" width="1" height="1" fill="black"/>
<rect x="14" y="20" width="1" height="1" fill="black"/>
<rect x="15" y="20" width="1" height="1" fill="black"/>
<rect x="15" y="21" width="1" height="1" fill="black"/>
<rect x="17" y="26" width="1" height="1" fill="black"/>
<rect x="16" y="21" width="1" height="1" fill="black"/>
<rect x="17" y="21" width="1" height="1" fill="black"/>
<rect x="17" y="20" width="1" height="1" fill="black"/>
<rect x="19" y="20" width="1" height="1" fill="black"/>
<rect x="20" y="20" width="1" height="1" fill="black"/>
<rect x="21" y="20" width="1" height="1" fill="black"/>
<rect x="22" y="20" width="1" height="1" fill="black"/>
<rect x="23" y="20" width="1" height="1" fill="black"/>
<rect x="24" y="22" width="1" height="1" fill="black"/>
<rect x="24" y="24" width="1" height="1" fill="black"/>
<rect x="23" y="24" width="1" height="1" fill="black"/>
<rect x="23" y="25" width="1" height="1" fill="black"/>
<rect x="22" y="22" width="1" height="1" fill="black"/>
<rect x="24" y="20" width="1" height="1" fill="black"/>
<rect x="25" y="20" width="1" height="1" fill="black"/>
<rect x="26" y="21" width="1" height="1" fill="black"/>
<rect x="27" y="20" width="1" height="1" fill="black"/>
<rect x="28" y="21" width="1" height="1" fill="black"/>
<rect x="28" y="22" width="1" height="1" fill="black"/>
<rect x="28" y="23" width="1" height="1" fill="black"/>
<rect x="28" y="24" width="1" height="1" fill="black"/>
<rect x="27" y="24" width="1" height="1" fill="black"/>
<rect x="26" y="25" width="1" height="1" fill="black"/>
<rect x="27" y="25" width="1" height="1" fill="black"/>
<rect x="28" y="26" width="1" height="1" fill="black"/>
<rect x="28" y="27" width="1" height="1" fill="black"/>
<rect x="27" y="26" width="1" height="1" fill="black"/>
<rect x="27" y="27" width="1" height="1" fill="black"/>
<rect x="25" y="26" width="1" height="1" fill="black"/>
<rect x="27" y="28" width="1" height="1" fill="black"/>
<rect x="25" y="28" width="1" height="1" fill="black"/>
<rect x="24" y="28" width="1" height="1" fill="black"/>
<rect x="23" y="27" width="1" height="1" fill="black"/>
<rect x="22" y="28" width="1" height="1" fill="black"/>
<rect x="25" y="27" width="1" height="1" fill="black"/>
<rect x="23" y="19" width="1" height="1" fill="black"/>
<rect x="24" y="21" width="1" height="1" fill="black"/>
<rect x="24" y="23" width="1" height="1" fill="black"/>
<rect x="25" y="23" width="1" height="1" fill="black"/>
<rect x="19" y="21" width="1" height="1" fill="black"/>
<rect x="20" y="21" width="1" height="1" fill="black"/>
<rect x="18" y="22" width="1" height="1" fill="black"/>
<rect x="19" y="22" width="1" height="1" fill="black"/>
<rect x="19" y="23" width="1" height="1" fill="black"/>
<rect x="19" y="24" width="1" height="1" fill="black"/>
<rect x="19" y="26" width="1" height="1" fill="black"/>
<rect x="21" y="24" width="1" height="1" fill="black"/>
<rect x="21" y="26" width="1" height="1" fill="black"/>
<rect x="20" y="22" width="1" height="1" fill="black"/>
<rect x="20" y="23" width="1" height="1" fill="black"/>
<rect x="20" y="24" width="1" height="1" fill="black"/>
<rect x="20" y="26" width="1" height="1" fill="black"/>
<rect x="22" y="24" width="1" height="1" fill="black"/>
<rect x="17" y="19" width="1" height="1" fill="black"/>
<rect x="13" y="17" width="1" height="1" fill="black"/>
<rect x="13" y="18" width="1" height="1" fill="black"/>
<rect x="13" y="19" width="1" height="1" fill="black"/>
<rect x="13" y="20" width="1" height="1" fill="black"/>
<rect x="12" y="18" width="1" height="1" fill="black"/>
<rect x="12" y="19" width="1" height="1" fill="black"/>
<rect x="12" y="20" width="1" height="1" fill="black"/>
<rect x="11" y="19" width="1" height="1" fill="black"/>
<rect x="28" y="16" width="1" height="1" fill="black"/>
<rect x="28" y="17" width="1" height="1" fill="black"/>
<rect x="28" y="18" width="1" height="1" fill="black"/>
<rect x="26" y="13" width="1" height="1" fill="black"/>
<rect x="28" y="13" width="1" height="1" fill="black"/>
<rect x="28" y="14" width="1" height="1" fill="black"/>
<rect x="28" y="12" width="1" height="1" fill="black"/>
<rect x="5" y="13" width="1" height="1" fill="black"/>
<rect x="6" y="12" width="1" height="1" fill="black"/>
<rect x="9" y="12" width="1" height="1" fill="black"/>
<rect x="18" y="6" width="1" height="1" fill="black"/>
<rect x="19" y="5" width="1" height="1" fill="black"/>
<rect x="20" y="6" width="1" height="1" fill="black"/>
</svg>
