<svg width="64" height="64" viewBox="0 0 64 64" fill="none" xmlns="http://www.w3.org/2000/svg">
<g clip-path="url(#clip0_93_18)">
<mask id="mask0_93_18" style="mask-type:luminance" maskUnits="userSpaceOnUse" x="0" y="0" width="64" height="64">
<path d="M63.9981 0H0V63.9981H63.9981V0Z" fill="white"/>
</mask>
<g mask="url(#mask0_93_18)">
<path d="M32.6846 24.8259C33.2906 24.7969 33.9987 24.8141 34.6106 24.8147L37.9312 24.8153L40.644 24.8132C41.1543 24.8129 41.6815 24.8039 42.1896 24.8303C42.4437 24.8435 42.7721 24.9397 43.0046 25.0372C44.3475 25.5997 45.3021 27.0214 45.7993 28.3493C46.9337 31.3789 46.8125 35.2071 45.5071 38.1693C44.9556 39.4214 44.0784 40.6493 42.7634 41.1402C42.4909 41.2418 42.0681 41.3549 41.7965 41.3777C41.3078 41.4183 37.865 41.4486 37.6556 41.3571L37.6437 41.3171C37.7362 41.2264 37.9525 41.0374 38.0181 40.9599C38.7525 40.0946 38.8437 38.3318 38.7656 37.2458L40.4965 37.2439C40.8121 37.2399 41.1375 37.2492 41.4537 37.2539C41.5178 37.0061 41.6956 36.6277 41.7925 36.368C42.5281 34.4293 42.5803 32.2977 41.9403 30.3253C41.7868 29.8579 41.5843 29.4107 41.3796 28.9643C40.2831 29.0058 39.0156 28.9771 37.9081 28.977L32.3412 28.976C32.3731 29.949 32.3431 30.9809 32.3512 31.9639C32.3575 32.7311 32.3818 33.6339 32.2821 34.3877C32.2262 34.763 32.1293 35.0177 31.9009 35.3199C31.3481 36.0505 29.6203 36.0268 28.9802 35.4727C28.2116 34.808 28.4828 33.0918 28.4221 32.1443C28.3711 31.3455 28.4322 30.3524 28.4561 29.5467C28.5201 28.352 28.74 26.9662 29.5475 26.0452C30.3818 25.0909 31.4903 24.9016 32.6846 24.8259Z" fill="#655EE8"/>
<path d="M28.2801 24.7976L28.3216 24.7944L28.3577 24.8272C28.3409 24.8981 27.9944 25.2145 27.9007 25.3299C27.2775 26.0973 27.0458 28.0606 27.223 29.0103C26.9326 28.9648 26.5932 28.9807 26.2975 28.9768C25.7131 28.969 25.1146 28.993 24.5315 28.9655C23.5903 31.1936 23.2749 33.0953 23.9192 35.5109C24.0997 36.1878 24.3411 36.6309 24.5728 37.2578C24.9218 37.2381 25.2991 37.2403 25.6505 37.2437C28.311 37.2687 30.9859 37.2025 33.6449 37.2516C33.6255 37.0844 33.6249 36.8916 33.6287 36.7191C33.6521 35.0691 33.5702 33.4278 33.7005 31.7831C33.8602 29.7631 37.4462 29.892 37.4799 31.7934C37.5162 33.8403 37.7152 36.2216 37.3202 38.2256C36.5052 41.6062 34.1943 41.4094 31.2965 41.4084L27.5295 41.4075L25.1077 41.41C24.6518 41.4112 23.9132 41.4347 23.4827 41.3537C22.9647 41.2562 22.3918 40.9228 21.9898 40.5787C20.2409 39.0812 19.5824 36.4809 19.4266 34.2534C19.2493 31.7181 19.8441 28.3045 21.5248 26.3254C22.6728 24.9737 23.7494 24.7854 25.408 24.8125C26.1849 24.8251 27.534 24.8468 28.2801 24.7976Z" fill="#655EE8"/>
<path d="M46.5362 41.5498L46.5893 41.5786C46.5577 42.0714 46.5858 42.5129 46.5849 43.0054L46.5812 45.8367L46.5808 54.3923L46.5796 60.5073L46.5802 62.3611C46.5808 62.7048 46.568 63.1673 46.6074 63.5007C46.1687 63.4395 44.8552 63.4664 44.3383 63.4686C42.9655 63.4748 41.5602 63.4532 40.1905 63.477C40.1165 63.4901 40.1424 63.4923 40.0699 63.4639C39.9896 63.277 40.0427 62.3189 40.0415 62.0548L40.0393 57.6957L40.0362 44.1451C40.4524 44.0207 40.9252 43.9492 41.339 43.8267C42.8408 43.3826 45.4993 42.8123 46.5362 41.5498Z" fill="#345FEB"/>
<path d="M19.3829 41.5684L19.4517 41.5971C19.4824 41.639 19.5139 41.6799 19.5463 41.7205C19.7011 41.914 20.2167 42.2927 20.4477 42.4062C21.9111 43.1237 23.5079 43.5574 25.0837 43.9496C25.3465 44.0152 25.6033 44.079 25.8722 44.113C25.9028 45.7496 25.878 47.4596 25.8779 49.1002L25.8774 58.4296C25.8773 60.0487 25.8372 61.9015 25.888 63.5046C25.6191 63.4555 25.0473 63.4699 24.7553 63.4696L22.905 63.469L20.727 63.4693C20.3586 63.4696 19.7174 63.4509 19.3763 63.5118L19.3804 48.0484C19.3803 45.9052 19.3535 43.7065 19.3829 41.5684Z" fill="#345FEB"/>
<path d="M0 0H2.26299C2.42767 0.0590251 2.72926 0.0841685 2.91156 0.0903659C4.38084 0.140331 5.82475 0.368555 7.25622 0.698409C13.5201 2.09467 18.846 6.18912 21.8055 11.8836C21.8693 12.0042 21.9257 12.1287 21.9744 12.2562C24.6851 7.81609 28.871 1.61721 34.2234 0.232469C34.4547 0.172604 35.2594 0.069568 35.3863 0H36.2353C36.2109 0.638447 36.2275 1.38218 36.2278 2.02791L36.2288 5.61187C36.2294 6.19331 36.2441 6.83869 36.2188 7.41559C35.8941 7.82203 35.0578 8.44797 34.6278 8.80497C33.9509 9.37231 33.2838 9.95137 32.6269 10.5419C32.03 11.0769 31.4491 11.6725 30.8772 12.2361C28.6094 14.4704 26.4573 17.0364 25.277 20.0254C24.9342 20.8937 24.5028 22.5938 24.6149 23.4988C24.0036 23.4258 22.5887 23.4862 21.9271 23.4692C21.493 23.458 19.7313 23.4476 19.3777 23.5118C19.4588 16.3566 13.1819 8.58509 5.83278 8.14275C5.86888 9.90322 5.84294 11.738 5.84266 13.5027L5.84216 23.1145L5.84822 64H2.13333e-06L0 0Z" fill="#345FEB"/>
<path d="M40.0473 0H46.5813C46.5585 2.15041 46.5816 4.34666 46.5816 6.502L46.5766 24.5045C46.3132 24.1599 46.2388 23.8339 45.8557 23.5101C44.6154 22.462 41.6195 22.0124 40.0332 22.1105C40.0604 21.2506 40.0398 20.2847 40.0398 19.4181L40.0395 14.3956L40.0473 0Z" fill="#345FEB"/>
<path d="M48.4346 56.5308C51.6368 56.5758 54.9152 56.5414 58.1224 56.5408L60.4696 56.5376C60.8536 56.5364 61.4927 56.5108 61.8552 56.5798C61.9802 56.6039 62.5636 57.5204 62.6693 57.6748C63.119 58.3254 63.5627 58.9801 64.0005 59.6392V59.7633C63.808 60.0558 63.588 60.4764 63.4143 60.7883L62.5005 62.4273C62.3286 62.7376 62.0921 63.1958 61.8911 63.4683C60.8646 63.492 59.7433 63.4704 58.7111 63.4701L52.1511 63.4692C50.9299 63.4692 49.6646 63.4536 48.4464 63.4783C48.4114 62.8242 48.4421 61.9045 48.4424 61.2233C48.4477 59.6592 48.4452 58.0951 48.4346 56.5308Z" fill="#345FEB"/>
</g>
</g>
<defs>
<clipPath id="clip0_93_18">
<rect width="64" height="64" fill="white"/>
</clipPath>
</defs>
</svg>
